<svg xmlns="http://www.w3.org/2000/svg" xml:space="preserve" width="614" height="695" version="1.1" style="shape-rendering:geometricPrecision; text-rendering:geometricPrecision; image-rendering:optimizeQuality; fill-rule:evenodd; clip-rule:evenodd"
viewBox="0 0 21000 29700"
 xmlns:xlink="http://www.w3.org/1999/xlink">
 <defs>
  <style type="text/css">
   <![CDATA[
    .str3 {stroke:black;stroke-width:10;stroke-opacity:0.501961}
    .str5 {stroke:black;stroke-width:50}
    .str7 {stroke:#434242;stroke-width:10}
    .str1 {stroke:#F5B2B6;stroke-width:10}
    .str0 {stroke:black;stroke-width:10}
    .str4 {stroke:black;stroke-width:10}
    .str2 {stroke:red;stroke-width:10}
    .str8 {stroke:#2B2A29;stroke-width:7.62}
    .str6 {stroke:black;stroke-width:7.62}
    .fil2 {fill:none}
    .fil1 {fill:#FEFEFE}
    .fil0 {fill:#EBECEC}
    .fil8 {fill:#D9DADA}
    .fil5 {fill:#FEFEFE;fill-rule:nonzero}
    .fil4 {fill:#D9DADA;fill-rule:nonzero}
    .fil7 {fill:#434242;fill-rule:nonzero}
    .fil6 {fill:black;fill-rule:nonzero}
    .fil3 {fill:#FEFEFE;fill-rule:nonzero;fill-opacity:0.501961}
   ]]>
  </style>
 </defs>
 <g id="Plan_x0020_1">
  <metadata id="CorelCorpID_0Corel-Layer"/>
  <path class="fil0 str0" d="M4571 12977c-43,-9 -86,-24 -127,-48 -151,-90 -111,-299 -343,-181 -129,65 -69,-143 -180,-124 -42,7 -199,39 -216,32 -90,-40 -104,-37 -172,58 -88,124 -220,-19 -343,-11 -114,7 -52,-128 -148,-169 -58,-25 -91,57 -153,50 -98,-11 -6,-102 15,-143 38,-70 -136,-35 -150,-38 -84,-21 -10,-160 -98,-160 -107,0 -84,280 -219,189 -56,-37 -70,19 -113,42 -28,15 -53,0 -77,-11 -114,-48 -138,-44 -247,5 -84,38 -101,-91 -192,-67 -64,17 -103,85 -166,35 -65,-52 -54,-127 -98,-178 -92,-106 -176,142 -204,-16 -10,-56 3,-90 54,-116 61,-32 38,-54 -2,-93 -98,-94 -103,-247 73,-174 204,85 81,-182 81,-257 0,-76 50,-161 110,-204 31,-22 110,-3 108,-62 -3,-79 -114,-61 -151,-94 -61,-54 47,-125 104,-113 95,20 366,-40 414,-119 46,-77 173,-11 244,-69 53,-43 3,-72 -60,-98 -46,-19 -97,-32 -111,-34 -127,-17 -307,-87 -272,-247 32,-146 -101,-78 -99,-130 1,-36 35,-77 61,-99 89,-75 248,-36 272,-164 11,-59 28,-142 17,-202 -12,-63 -93,-36 -138,-78 -52,-47 -131,-105 -113,-184 18,-77 89,-114 122,-178 27,-52 2,-102 0,-156 -2,-81 78,-111 93,-179 22,-100 -14,-209 18,-314 26,-86 77,-151 54,-246 -16,-64 -35,-202 -79,-249 -53,-59 -82,-49 -149,-75 -66,-26 -164,-2 -204,-69 -49,-83 -20,-264 21,-351 28,-59 167,-168 232,-168 36,0 91,30 123,16 23,-11 0,-97 8,-127 18,-62 48,-71 -33,-116 -68,-38 -148,-73 -135,-169 21,-150 237,-111 219,-218 -14,-82 46,-113 110,-135 84,-28 -30,-117 55,-179 22,-16 66,-128 42,-152 -36,-36 -124,42 -124,-21 0,-54 0,-73 -56,-75 -14,-1 -23,-41 -37,-53 -71,-60 -92,-47 -83,-148 8,-97 0,-195 75,-257 37,-30 74,-60 111,-91 60,-49 370,-66 218,-224 -67,-70 45,-99 36,-149 -12,-64 -123,-35 -155,-104 -19,-41 -52,-79 -81,-113 -66,-78 1,-121 26,-189 31,-84 71,-118 164,-107 70,8 82,-20 130,-60 48,-39 50,-105 91,-142 58,-53 88,-52 112,-134 13,-44 -15,-128 37,-154 51,-25 117,-8 75,-100 -49,-106 12,-221 85,-300 53,-57 151,-22 199,-76 68,-77 127,-47 186,-106 31,-31 25,-81 37,-121 17,-57 95,-100 142,-135 56,-42 30,-71 44,-128 8,-34 68,-57 79,-85 26,-68 -1,-123 9,-174 34,-9 164,-26 172,0 24,75 81,71 147,54 44,-11 67,6 92,39 22,30 61,-6 72,33 18,71 156,-23 200,54 19,32 -1,63 67,31l169 -80c29,-14 39,49 83,16 39,-30 62,-23 95,11 11,5 24,18 36,18 6,-25 35,-64 60,-39 12,12 399,-23 399,51 0,45 17,111 37,150 41,82 134,-27 206,-24 60,3 26,21 85,-8 13,-6 162,37 174,48 53,49 38,18 97,7 38,-7 48,38 88,8 72,-54 43,86 95,31 40,-42 44,59 131,38 22,-7 59,-53 77,-43 42,23 333,-13 383,-36 74,-34 232,-80 312,-57 26,7 60,44 86,48l166 25c62,9 67,16 119,26 59,12 68,-98 141,-48 25,17 49,-3 76,-2 17,1 56,31 75,39 58,0 93,17 147,-16 55,-33 74,-49 138,-49 52,0 102,-18 147,-45l-297 -2062 0 0c-11,7 -21,14 -32,20 -80,48 -204,42 -296,72 -87,28 -162,101 -255,110 -111,10 -143,-81 -235,-112 -126,-42 -268,-56 -400,-32 -64,11 -169,62 -229,31 -86,-45 -190,-46 -284,-78 -104,-35 -290,-68 -350,-162 -42,-66 -63,-113 -144,-125 -58,-9 -185,-30 -232,-20 -84,17 -135,130 -228,130 -197,0 -332,-86 -415,-258 -77,-159 -122,-103 -275,-127 -60,-9 -115,-51 -164,-59l0 0 -3281 0 0 24302 5893 0 0 0c92,-182 -88,-325 -200,-349 -125,-26 -245,-182 -288,-302 -9,-26 -23,-230 -11,-238l0 0 -56 51c-66,22 -190,14 -262,16l-383 6c-38,1 -259,62 -272,17 -4,-3 -5,-5 -8,-8 -17,-135 16,-356 -79,-463 -89,-68 -188,-13 -292,0 -98,12 -143,-11 -204,-86 -52,-64 -233,-87 -310,-111 -57,-18 -120,-6 -175,-26 -61,-23 -136,-57 -192,-90l-162 -41c-107,-27 -155,-63 -274,-50 -90,10 -354,69 -410,-31 -40,-71 -20,-103 36,-154 67,-61 89,-120 106,-210 5,-168 -67,-231 -153,-363 -92,-144 -107,-254 -66,-421 23,-99 -30,-135 -30,-224 0,-130 17,-224 -21,-353 -42,-143 19,-294 126,-390 67,-12 95,-151 104,-209 20,-136 85,-274 158,-386 72,-110 181,-221 195,-359 17,-43 17,-91 35,-135 24,-61 77,-105 98,-177 32,-108 38,-250 45,-363 4,-54 10,-93 -13,-142 -36,-75 -100,-102 -113,-195 13,-173 1,-356 97,-505 35,-54 77,-110 104,-169 40,-90 68,-192 113,-278 39,-39 78,-56 114,-91 50,-48 113,-189 132,-255 37,-125 47,-292 178,-368 53,-31 105,-32 149,-85 52,-62 45,-97 80,-166l62 -47 0 0c-5,-11 2,-22 5,-66 3,-42 -46,-60 -39,-104 11,-71 82,-50 39,-135 -49,-99 2,-117 79,-183 101,-87 -49,-215 136,-302 52,-25 92,-41 92,-116 0,-66 -58,-89 -60,-142 -1,-43 16,-81 -15,-118 -40,-47 -117,-69 -157,-118 -56,-68 18,-161 -39,-229 -55,-67 -25,-146 -21,-228 3,-79 -4,-162 13,-240 16,-74 66,-147 94,-218 67,-173 -23,-325 37,-499 18,-53 -10,-87 -4,-137 7,-57 52,-87 86,-128 86,-104 -77,-171 -139,-227 -50,-44 -114,-93 -148,-150 -48,-81 -28,-196 -159,-183 -81,8 -76,-70 -82,-130 -3,-35 11,-86 39,-111 28,-25 33,-35 -2,-57 -98,-62 12,-89 2,-159 -7,-52 -87,-55 -88,-98 -2,-77 47,-97 101,-134 60,-41 99,-101 83,-177 -10,-49 -82,-57 -94,-121 -5,-26 -26,-46 -38,-69l0 0z"/>
  <path class="fil0 str0" d="M4281 1000c49,8 105,50 164,59 153,24 198,-33 275,127 83,172 218,258 415,258 92,0 143,-113 228,-130 47,-10 174,11 232,20 81,12 102,59 144,125 61,95 246,127 350,162 94,32 198,33 284,78 60,31 165,-20 229,-31 132,-24 275,-10 400,32 92,31 124,122 235,112 93,-8 168,-81 255,-110 92,-30 216,-23 296,-72 10,-6 21,-13 32,-20l0 0c88,-56 192,-129 282,-164 86,-33 209,-92 302,-79 129,18 266,97 383,156 114,58 235,104 341,175 81,55 143,133 215,199 91,84 184,209 322,209 142,0 188,-139 280,-217 34,-7 80,-44 116,-58 165,-68 299,-18 442,62 90,50 107,32 206,32 34,0 56,30 86,31 35,1 89,-27 124,-37 69,23 108,93 176,101 52,7 133,36 179,35 59,-2 241,-163 297,-204 125,-91 325,-49 429,63 123,132 228,-29 358,-29l6 6c10,72 -15,162 68,190 79,18 128,20 205,-10 61,-23 68,11 124,11 99,0 191,-30 287,-38 67,-6 130,31 200,31 123,0 213,-94 332,-80 124,15 219,63 332,112 99,62 191,30 273,107 61,57 147,45 219,75 74,31 124,11 194,-16 56,-21 199,45 244,78 32,23 93,48 111,84 21,42 50,99 102,99 131,32 204,147 294,233 74,70 33,146 89,228 58,83 196,189 286,240 80,46 136,1 210,49 76,50 153,70 247,70 87,-5 170,-170 198,-239 42,-104 242,-342 361,-325 131,19 214,-40 336,-43 115,-3 159,72 286,35 148,-4 217,-96 261,-228 29,-86 11,-210 25,-302 12,-78 105,-114 179,-101 54,9 102,53 142,87 51,43 197,40 250,6 48,-31 80,-59 138,-69 33,-6 96,4 122,-18 235,0 212,-287 288,-432 31,-59 84,-29 135,-29 78,0 162,-114 217,-162 45,-40 149,-56 206,-58l118 21 0 0c-1,-60 69,-195 100,-229 34,-38 62,-76 99,-111 51,-48 121,-117 178,-160l0 0 -15537 0 0 0z"/>
  <path class="fil0 str0" d="M19441 1500c-1,-60 69,-195 100,-229 34,-38 62,-76 99,-111 51,-48 121,-117 178,-160l0 0 182 0 0 24302 -13107 0 0 0c92,-182 -88,-325 -200,-349 -125,-26 -245,-182 -288,-302 -9,-26 -23,-230 -11,-238l0 0 31 -39c78,-67 13,-239 66,-301 27,-31 54,-38 54,-86 0,-36 47,-74 54,-118 32,-227 331,-240 498,-343 94,-152 -96,-252 27,-405 89,-110 363,146 505,4 48,-48 -28,-208 -8,-285 34,-134 161,-189 276,-229l198 -7c6,-12 39,-29 50,-49 13,-23 16,-61 27,-78 30,-43 127,-23 172,-23 101,0 239,-144 223,-248 -10,-68 7,-150 -25,-211 -50,-94 10,-276 32,-375 0,-76 0,-188 36,-253l108 -196c31,-55 73,-53 122,-79 52,-28 108,-111 139,-162 64,-104 152,-179 220,-277 77,-48 162,-55 205,-143 25,-51 23,-128 46,-186 38,-96 137,-244 240,-280 70,-25 163,-38 180,-130l58 -326c0,-148 -88,-76 -174,-136 -67,-46 0,-225 13,-289 15,-74 53,-63 107,-109 29,-24 39,-80 70,-85l301 -48c70,-11 141,12 209,-10 132,-43 250,-284 292,-408 81,-127 36,-191 57,-327 14,-88 60,-159 137,-206 72,-44 117,-34 136,-132 20,-107 33,-206 82,-306 59,-62 83,-125 181,-107 85,15 130,-33 205,-33 59,0 91,3 136,-42 42,-42 87,-52 144,-61 89,-14 89,-67 149,-122 38,-35 18,-83 13,-127 -6,-91 -228,-119 -266,-247 -19,-63 12,-257 49,-312l110 -161c37,-54 188,-41 104,-123 -26,-26 -30,-105 -37,-141 0,-114 -3,-124 69,-208 50,-58 18,-130 18,-197 0,-63 20,-65 51,-112 22,-34 -87,-42 -102,-79 -32,-78 -84,-178 -99,-258 -13,-68 -3,-56 57,-90 28,-16 36,-59 54,-84 14,-45 41,-88 51,-134 8,-34 4,-69 14,-103 19,-61 143,-54 122,-158 -11,-55 -69,-66 -82,-109 -19,-61 35,-133 -14,-186 -92,-98 35,-121 80,-186 42,-61 55,-96 79,-166 20,-67 64,-125 64,-197 0,-69 -60,-68 -93,-112 -19,-25 122,-185 143,-215 50,-69 119,-98 133,-187 12,-75 -29,-237 25,-291 33,-33 20,-53 30,-93 9,-110 115,-298 93,-394 -10,-43 -62,-78 -70,-116 -11,-51 52,-106 42,-165 -11,-65 -7,-127 -15,-189 -40,-23 -99,-20 -132,-54 0,-38 3,-84 12,-121 15,-92 125,-139 179,-218 57,-84 36,-187 39,-279 2,-63 57,-90 21,-161 -37,-74 -59,-135 -62,-223 -2,-62 113,-143 172,-158 79,-20 90,-40 130,-110 53,-122 107,-143 189,-243 41,-50 161,-241 216,-241 276,0 426,-258 565,-461 79,-86 220,-309 337,-334 120,-26 281,101 325,-67 18,-69 -5,-222 -35,-285 -47,-76 -44,-236 -57,-326 -18,-119 43,-171 62,-280 12,-69 40,-86 73,-140 44,-71 59,-150 7,-221 -15,-183 -64,-380 95,-512 50,-41 41,-102 54,-156 15,-66 87,-167 151,-196 98,-44 237,-48 322,-110 78,-37 94,-125 150,-161l180 -115c139,-88 276,-107 276,-308 0,-31 127,-201 151,-234 34,-46 220,-80 280,-98 40,-12 121,-104 154,-136 118,-94 34,-225 86,-335 41,-88 286,-117 371,-131 91,-15 192,12 271,-32 101,-56 170,-5 273,-14l424 4c50,-29 32,-37 44,-84 12,-47 29,-77 58,-115 81,-101 162,-25 266,-63 39,-15 50,-126 66,-164 17,-41 40,-57 37,-104 -21,-86 107,-130 123,-206 14,-68 -52,-165 -49,-246 2,-61 2,-116 -7,-175 -13,-81 -45,-164 -66,-245 11,-60 -27,-140 -68,-181 -48,-48 -4,-123 -43,-180 -26,-38 -52,-57 -52,-106 0,-69 39,-85 68,-134 38,-63 53,-111 66,-183 6,-35 28,-56 31,-92 13,-51 66,-87 105,-117 49,-37 89,-83 125,-134l186 -263c35,-49 24,-113 74,-149 63,-46 130,-108 153,-186 95,-101 169,-161 296,-215 106,-45 208,-121 268,-220 130,-213 -106,-330 -111,-514l0 0z"/>
  <path class="fil1 str0" d="M7820 1611c88,-56 192,-129 282,-164 86,-33 209,-92 302,-79 129,18 266,97 383,156 114,58 235,104 341,175 81,55 143,133 215,199 91,84 184,209 322,209 142,0 188,-139 280,-217 34,-7 80,-44 116,-58 165,-68 299,-18 442,62 90,50 107,32 206,32 34,0 56,30 86,31 35,1 89,-27 124,-37 69,23 108,93 176,101 52,7 133,36 179,35 59,-2 241,-163 297,-204 125,-91 325,-49 429,63 123,132 228,-29 358,-29l6 6c10,72 -15,162 68,190 79,18 128,20 205,-10 61,-23 68,11 124,11 99,0 191,-30 287,-38 67,-6 130,31 200,31 123,0 213,-94 332,-80 124,15 219,63 332,112 99,62 191,30 273,107 61,57 147,45 219,75 74,31 124,11 194,-16 56,-21 199,45 244,78 32,23 93,48 111,84 21,42 50,99 102,99 131,32 204,147 294,233 74,70 33,146 89,228 58,83 196,189 286,240 80,46 136,1 210,49 76,50 153,70 247,70 87,-5 170,-170 198,-239 42,-104 242,-342 361,-325 131,19 214,-40 336,-43 115,-3 159,72 286,35 148,-4 217,-96 261,-228 29,-86 11,-210 25,-302 12,-78 105,-114 179,-101 54,9 102,53 142,87 51,43 197,40 250,6 48,-31 80,-59 138,-69 33,-6 96,4 122,-18 235,0 212,-287 288,-432 31,-59 84,-29 135,-29 78,0 162,-114 217,-162 45,-40 149,-56 206,-58l118 21 0 0c5,185 241,301 111,514 -60,99 -163,174 -268,220 -127,54 -201,113 -296,215 -23,78 -89,140 -153,186 -49,36 -39,100 -74,149l-186 263c-36,51 -76,96 -125,134 -39,30 -91,66 -105,117 -3,36 -25,57 -31,92 -13,71 -28,120 -66,183 -29,49 -68,65 -68,134 0,49 27,68 52,106 39,57 -5,132 43,180 41,41 79,121 68,181 20,81 53,164 66,245 9,59 10,115 7,175 -3,81 63,178 49,246 -16,77 -144,120 -123,206 3,47 -20,63 -37,104 -16,37 -26,149 -66,164 -104,38 -185,-38 -266,63 -30,37 -47,68 -58,115 -11,46 6,55 -44,84l-424 -4c-103,9 -172,-42 -273,14 -79,44 -179,17 -271,32 -85,14 -330,43 -371,131 -52,111 32,241 -86,335 -32,33 -114,124 -154,136 -60,18 -246,52 -280,98 -25,33 -151,203 -151,234 0,200 -138,220 -276,308l-180 115c-56,36 -72,124 -150,161 -85,62 -224,66 -322,110 -65,29 -136,130 -151,196 -12,55 -4,115 -54,156 -159,132 -110,329 -95,512 52,71 36,150 -7,221 -33,53 -61,71 -73,140 -19,110 -80,162 -62,280 13,89 11,250 57,326 30,63 53,217 35,285 -44,168 -205,41 -325,67 -117,25 -259,248 -337,334 -139,203 -289,461 -565,461 -55,0 -175,191 -216,241 -82,100 -136,121 -189,243 -39,70 -50,89 -130,110 -58,15 -174,95 -172,158 3,88 25,149 62,223 35,71 -19,98 -21,161 -4,93 17,195 -39,279 -54,80 -163,126 -179,218 -8,37 -12,82 -12,121 34,34 92,31 132,54 9,62 4,124 15,189 10,59 -52,114 -42,165 8,38 60,73 70,116 23,96 -84,284 -93,394 -9,40 3,60 -30,93 -54,54 -13,217 -25,291 -15,90 -83,118 -133,187 -21,30 -162,190 -143,215 33,44 93,43 93,112 0,71 -44,130 -64,197 -23,70 -36,105 -79,166 -45,65 -172,88 -80,186 50,53 -4,125 14,186 13,43 71,54 82,109 22,104 -103,97 -122,158 -10,34 -6,69 -14,103 -11,45 -37,88 -51,134 -17,24 -26,68 -54,84 -60,34 -70,21 -57,90 15,80 66,180 99,258 15,37 125,45 102,79 -31,47 -51,49 -51,112 0,67 32,139 -18,197 -73,84 -69,94 -69,208 7,36 10,115 37,141 85,82 -67,69 -104,123l-110 161c-37,55 -67,249 -49,312 38,128 260,156 266,247 5,43 25,92 -13,127 -60,55 -60,107 -149,122 -58,9 -102,19 -144,61 -45,45 -77,42 -136,42 -75,0 -120,49 -205,33 -98,-18 -122,45 -181,107 -50,100 -62,199 -82,306 -19,99 -64,88 -136,132 -77,47 -124,118 -137,206 -21,136 24,200 -57,327 -42,124 -159,366 -292,408 -67,22 -138,-2 -209,10l-301 48c-31,5 -42,61 -70,85 -55,46 -92,35 -107,109 -13,64 -80,243 -13,289 86,60 174,-12 174,136l-58 326c-17,93 -109,105 -180,130 -102,36 -201,184 -240,280 -23,59 -22,135 -46,186 -43,89 -128,95 -205,143 -68,98 -157,173 -220,277 -31,51 -87,135 -139,162 -49,26 -91,23 -122,79l-108 196c-36,65 -36,177 -36,253 -22,98 -82,281 -32,375 32,61 15,144 25,211 16,104 -122,248 -223,248 -44,0 -142,-20 -172,23 -11,16 -15,55 -27,78 -11,20 -44,37 -50,49l-198 7c-115,40 -243,95 -276,229 -19,78 57,237 8,285 -142,142 -416,-114 -505,-4 -123,153 66,252 -27,405 -167,102 -466,116 -498,343 -6,44 -54,83 -54,118 0,48 -27,55 -54,86 -53,62 13,234 -66,301l-31 39 0 0 -56 51c-66,22 -190,14 -262,16l-383 6c-38,1 -259,62 -272,17 -4,-3 -5,-5 -8,-8 -17,-135 16,-356 -79,-463 -89,-68 -188,-13 -292,0 -98,12 -143,-11 -204,-86 -52,-64 -233,-87 -310,-111 -57,-18 -120,-6 -175,-26 -61,-23 -136,-57 -192,-90l-162 -41c-107,-27 -155,-63 -274,-50 -90,10 -354,69 -410,-31 -40,-71 -20,-103 36,-154 67,-61 89,-120 106,-210 5,-168 -67,-231 -153,-363 -92,-144 -107,-254 -66,-421 23,-99 -30,-135 -30,-224 0,-130 17,-224 -21,-353 -42,-143 19,-294 126,-390 67,-12 95,-151 104,-209 20,-136 85,-274 158,-386 72,-110 181,-221 195,-359 17,-43 17,-91 35,-135 24,-61 77,-105 98,-177 32,-108 38,-250 45,-363 4,-54 10,-93 -13,-142 -36,-75 -100,-102 -113,-195 13,-173 1,-356 97,-505 35,-54 77,-110 104,-169 40,-90 68,-192 113,-278 39,-39 78,-56 114,-91 50,-48 113,-189 132,-255 37,-125 47,-292 178,-368 53,-31 105,-32 149,-85 52,-62 45,-97 80,-166l62 -47 0 0c-5,-11 2,-22 5,-66 3,-42 -46,-60 -39,-104 11,-71 82,-50 39,-135 -49,-99 2,-117 79,-183 101,-87 -49,-215 136,-302 52,-25 92,-41 92,-116 0,-66 -58,-89 -60,-142 -1,-43 16,-81 -15,-118 -40,-47 -117,-69 -157,-118 -56,-68 18,-161 -39,-229 -55,-67 -25,-146 -21,-228 3,-79 -4,-162 13,-240 16,-74 66,-147 94,-218 67,-173 -23,-325 37,-499 18,-53 -10,-87 -4,-137 7,-57 52,-87 86,-128 86,-104 -77,-171 -139,-227 -50,-44 -114,-93 -148,-150 -48,-81 -28,-196 -159,-183 -81,8 -76,-70 -82,-130 -3,-35 11,-86 39,-111 28,-25 33,-35 -2,-57 -98,-62 12,-89 2,-159 -7,-52 -87,-55 -88,-98 -2,-77 47,-97 101,-134 60,-41 99,-101 83,-177 -10,-49 -82,-57 -94,-121 -5,-26 -26,-46 -38,-69l0 0c-43,-9 -86,-24 -127,-48 -151,-90 -111,-299 -343,-181 -129,65 -69,-143 -180,-124 -42,7 -199,39 -216,32 -90,-40 -104,-37 -172,58 -88,124 -220,-19 -343,-11 -114,7 -52,-128 -148,-169 -58,-25 -91,57 -153,50 -98,-11 -6,-102 15,-143 38,-70 -136,-35 -150,-38 -84,-21 -10,-160 -98,-160 -107,0 -84,280 -219,189 -56,-37 -70,19 -113,42 -28,15 -53,0 -77,-11 -114,-48 -138,-44 -247,5 -84,38 -101,-91 -192,-67 -64,17 -103,85 -166,35 -65,-52 -54,-127 -98,-178 -92,-106 -176,142 -204,-16 -10,-56 3,-90 54,-116 61,-32 38,-54 -2,-93 -98,-94 -103,-247 73,-174 204,85 81,-182 81,-257 0,-76 50,-161 110,-204 31,-22 110,-3 108,-62 -3,-79 -114,-61 -151,-94 -61,-54 47,-125 104,-113 95,20 366,-40 414,-119 46,-77 173,-11 244,-69 53,-43 3,-72 -60,-98 -46,-19 -97,-32 -111,-34 -127,-17 -307,-87 -272,-247 32,-146 -101,-78 -99,-130 1,-36 35,-77 61,-99 89,-75 248,-36 272,-164 11,-59 28,-142 17,-202 -12,-63 -93,-36 -138,-78 -52,-47 -131,-105 -113,-184 18,-77 89,-114 122,-178 27,-52 2,-102 0,-156 -2,-81 78,-111 93,-179 22,-100 -14,-209 18,-314 26,-86 77,-151 54,-246 -16,-64 -35,-202 -79,-249 -53,-59 -82,-49 -149,-75 -66,-26 -164,-2 -204,-69 -49,-83 -20,-264 21,-351 28,-59 167,-168 232,-168 36,0 91,30 123,16 23,-11 0,-97 8,-127 18,-62 48,-71 -33,-116 -68,-38 -148,-73 -135,-169 21,-150 237,-111 219,-218 -14,-82 46,-113 110,-135 84,-28 -30,-117 55,-179 22,-16 66,-128 42,-152 -36,-36 -124,42 -124,-21 0,-54 0,-73 -56,-75 -14,-1 -23,-41 -37,-53 -71,-60 -92,-47 -83,-148 8,-97 0,-195 75,-257 37,-30 74,-60 111,-91 60,-49 370,-66 218,-224 -67,-70 45,-99 36,-149 -12,-64 -123,-35 -155,-104 -19,-41 -52,-79 -81,-113 -66,-78 1,-121 26,-189 31,-84 71,-118 164,-107 70,8 82,-20 130,-60 48,-39 50,-105 91,-142 58,-53 88,-52 112,-134 13,-44 -15,-128 37,-154 51,-25 117,-8 75,-100 -49,-106 12,-221 85,-300 53,-57 151,-22 199,-76 68,-77 127,-47 186,-106 31,-31 25,-81 37,-121 17,-57 95,-100 142,-135 56,-42 30,-71 44,-128 8,-34 68,-57 79,-85 26,-68 -1,-123 9,-174 34,-9 164,-26 172,0 24,75 81,71 147,54 44,-11 67,6 92,39 22,30 61,-6 72,33 18,71 156,-23 200,54 19,32 -1,63 67,31l169 -80c29,-14 39,49 83,16 39,-30 62,-23 95,11 11,5 24,18 36,18 6,-25 35,-64 60,-39 12,12 399,-23 399,51 0,45 17,111 37,150 41,82 134,-27 206,-24 60,3 26,21 85,-8 13,-6 162,37 174,48 53,49 38,18 97,7 38,-7 48,38 88,8 72,-54 43,86 95,31 40,-42 44,59 131,38 22,-7 59,-53 77,-43 42,23 333,-13 383,-36 74,-34 232,-80 312,-57 26,7 60,44 86,48l166 25c62,9 67,16 119,26 59,12 68,-98 141,-48 25,17 49,-3 76,-2 17,1 56,31 75,39 58,0 93,17 147,-16 55,-33 74,-49 138,-49 52,0 102,-18 147,-45l-297 -2062 0 0z"/>
  <path class="fil2 str1" d="M7290 12637c80,55 101,90 153,170 29,44 35,110 30,162 -4,47 17,85 33,128 26,70 -15,131 -5,201 9,63 35,92 30,166 34,110 43,70 -10,185 -11,24 -32,88 -17,112 34,52 137,-112 137,-12 0,56 -41,96 -41,154 0,26 18,27 23,48 6,26 -31,126 10,124 122,-5 39,40 79,130 46,104 121,-63 163,-20 29,29 7,98 79,81 62,-14 134,-43 101,67 -10,34 19,100 19,143 10,28 22,66 55,73 25,5 33,-44 48,-55 16,-12 116,-14 126,-1 19,23 -55,88 -56,121 -1,32 40,50 29,92 -7,27 -51,32 -52,69 -3,116 -69,242 -101,359 -46,170 -54,214 -211,302 -74,37 -41,113 -88,152 -96,79 3,260 -145,260 -70,0 -51,140 -164,109 -85,-23 -90,30 -129,81 -33,43 -65,51 -106,80 -28,20 -28,54 -32,85 -5,38 -61,58 -72,117 -11,59 -14,100 -41,158 -13,26 -23,56 -38,80 -28,44 -134,46 -62,109 70,61 -32,66 -67,66 -20,0 -24,18 -38,27 -23,16 -93,-28 -77,26 10,35 33,64 15,101 -13,28 -54,26 -54,60 0,88 -82,26 -95,101 -13,74 15,48 44,94 17,27 -65,87 -77,135 -18,73 40,101 52,169 -5,82 -12,42 -75,42 -74,74 -6,155 -136,210 -86,36 -187,236 -231,315l-242 438 -627 1053c-46,59 -106,99 -167,140 -96,64 -172,159 -271,216 -38,22 -64,49 -112,49 -66,0 -41,-20 -69,-64 -15,-76 -71,-21 -104,7 -86,73 -220,70 -309,149 -34,30 -77,75 -117,94 -89,43 -90,43 -145,130 -48,76 -207,187 -185,277 47,191 -23,109 -118,235 -16,44 -70,84 -118,84 -63,0 -63,-24 -77,-75 -30,-107 -94,77 -138,19 -57,-74 221,-230 119,-289 -62,-35 -52,-77 -50,-141 2,-68 -3,-131 -14,-197 -17,-20 -42,-96 -42,-122 0,-50 70,-71 80,-121 17,-89 -68,-73 -105,-21 -35,50 -48,92 -101,128 -90,61 -170,-92 -193,115 -4,38 -66,181 -118,144 -24,-17 -54,-118 -95,-98 -77,37 27,102 18,152 -5,27 -21,43 -21,73 0,34 22,65 24,101 -19,52 -11,70 -48,118 -54,71 7,181 -45,249 -70,91 -174,149 -212,267 -43,133 17,277 -45,411 -8,109 -59,229 -94,333 -18,52 -67,182 -131,186 -100,7 -77,177 -82,247 -8,112 -12,224 -45,332 -17,69 -57,146 -58,216 -1,56 23,109 2,164 -22,58 -79,189 -116,236 -71,92 -135,-31 -204,-66 -155,72 20,273 -182,283 -78,4 -126,-35 -191,30 -30,30 -22,131 -36,175 -19,37 -73,175 1,177 144,4 299,36 430,93 85,37 217,116 273,191 36,41 19,113 50,142 31,29 84,15 92,64 6,36 -22,74 2,110 18,26 140,50 179,78 78,55 107,172 119,261 14,105 27,193 94,283l26 234"/>
  <path class="fil2 str2" d="M1000 16995c62,-28 39,-93 85,-131 50,-42 -67,-86 11,-134 72,-45 41,-35 45,-106 3,-61 26,-31 -27,-82 -111,-107 172,-53 187,-63 34,-24 11,-57 18,-90 6,-29 41,-22 60,-33 33,-20 2,-97 70,-73 61,22 37,13 68,-29 29,-38 109,-1 129,-53 30,-80 -29,-81 48,-152 63,11 132,-93 195,-121 50,-22 55,-137 113,-180 61,-45 69,-44 106,-116 76,-148 201,-283 316,-397 51,-27 83,-90 132,-124 41,-28 156,-41 175,-72 99,-158 104,-145 266,-99 95,27 225,27 323,6 76,-16 315,-34 332,69l50 291c50,124 282,-68 346,-110 74,-49 106,6 174,-11 67,-16 81,-66 163,-49 108,22 179,116 297,26 33,-26 105,-120 136,-48 30,71 47,8 74,-16 39,-35 92,-4 133,-60 35,-47 47,-98 92,-147 66,-45 201,-128 210,-209l54 -487c12,-108 22,-150 135,-153 128,-3 158,-69 256,-124 63,-30 79,-116 136,-143 47,-23 116,8 157,-20 47,-32 72,-59 130,-66 238,-27 4,-312 86,-424 58,-79 -89,-112 -46,-210 40,-93 149,-133 228,-192 158,-132 268,-166 472,-147 91,9 106,-7 178,-53 53,-34 235,2 235,-86 0,-71 -79,-93 -33,-175 57,-102 157,-169 191,-284 32,-107 21,-272 120,-346 37,-37 84,-205 67,-255 -48,-143 -32,-264 6,-409 18,-67 68,-126 116,-173 41,-40 68,-180 100,-238l162 -201c94,-116 65,-314 154,-418 43,-50 95,-86 124,-147 25,-53 35,-143 67,-185 95,-175 447,-373 630,-431 100,-32 264,-167 363,-138 137,40 183,3 305,-45 101,-20 251,-145 276,-247 20,-82 6,-171 36,-249 28,-74 112,-71 176,-61 84,13 62,-14 89,-74 19,-42 49,-15 75,-38 21,-19 16,-54 45,-63 31,-10 76,28 100,-16 25,-46 13,-86 52,-135 188,-160 127,86 203,5 90,-96 137,-73 175,25 13,32 300,66 338,54 63,-21 54,-107 120,-128 72,-22 21,86 25,100 4,1 4,1 7,4 89,-20 67,-23 143,26 40,26 69,87 12,117 -122,63 16,201 43,158 22,-35 32,-35 69,-37 28,-1 36,-56 54,-76 61,-70 61,3 7,-91 -12,-21 26,-184 43,-208 97,-132 105,-47 225,-47 23,57 4,66 73,43 51,-17 54,34 86,51 56,61 77,47 60,142 -10,52 11,116 60,143 24,14 121,5 94,39 -39,49 -3,75 44,50 50,-27 50,3 75,32 47,56 78,-22 119,79 45,111 143,75 148,217 2,70 53,36 86,57 17,11 10,59 31,84"/>
  <path class="fil2 str2" d="M12902 9086c34,48 97,18 121,94 14,43 2,102 13,150 15,62 69,-14 76,41 8,59 -97,185 -46,203 108,38 8,55 38,123 36,80 -128,33 -75,171 18,47 42,81 88,103 44,21 81,81 112,119 45,64 39,73 116,69 32,-2 218,148 237,180 83,141 105,-50 176,18 63,60 121,-61 200,-19 30,15 87,105 112,135 41,48 39,86 50,146 10,54 72,66 110,98 31,26 -36,37 -36,76 0,77 263,110 262,125 -1,31 -68,12 -70,48 -1,21 113,16 141,27 60,26 20,83 88,104 7,17 50,99 66,101 37,6 99,-10 119,29 53,100 204,-24 237,53 48,109 23,38 113,97 52,34 65,60 128,92 55,28 12,81 42,118 25,32 71,-86 86,-100 33,-31 167,5 238,-24 52,-21 129,-45 163,-90 48,-61 63,-50 110,-11 55,46 161,17 195,72 63,100 50,-8 126,-8 25,18 58,57 83,68 85,37 50,-76 163,30 51,48 100,4 156,53 59,50 57,110 118,33 26,-33 86,-37 117,-7 39,38 43,59 87,19 55,-50 88,55 182,4 100,-55 283,-59 397,-63 129,-5 260,-94 369,-158 72,-29 116,-71 200,-73 147,-3 268,8 415,-23 85,-17 193,-45 272,5 42,27 56,73 107,98 39,19 26,65 52,87 42,36 110,13 147,66 33,47 58,75 107,106 27,30 67,26 73,76 14,113 114,74 154,164 25,58 111,62 124,117 8,33 -17,130 25,142 48,14 110,-106 179,-19 54,68 81,82 167,49l68 -33"/>
  <path class="fil2 str2" d="M1000 12544c-8,0 85,65 129,12 33,-40 105,-82 144,-27 48,67 114,-12 162,12 90,44 88,-30 161,-48 44,-11 55,60 110,14 71,-59 144,46 231,14 25,-9 161,17 122,-37 -40,-55 32,-153 79,-175 36,-17 70,-56 110,-57 43,-1 59,31 106,31 50,0 133,-43 148,-95 15,-51 -28,-80 -33,-128 -4,-35 53,-47 70,-72 74,-107 -7,-296 69,-393 41,-52 141,-49 200,-54 95,-8 154,-70 229,-122 62,-35 99,-95 170,-119 94,-33 294,-116 388,-98 110,21 186,-73 253,-63 150,21 228,-125 386,-49 149,72 271,7 381,-97l76 -27c67,-24 154,-36 212,-74l716 -471c107,-70 180,-4 288,-72 80,-50 194,-75 292,-50 285,8 527,288 831,282 146,-3 237,-203 361,-255 91,-38 296,-142 388,-119 -4,-1 -6,-2 -8,-6 50,0 83,8 132,-19 44,-24 124,-169 132,-220 15,-89 55,-159 77,-244 7,-25 5,-62 35,-74 54,-21 40,53 51,81 25,59 133,-41 113,19 -8,24 -32,43 -45,63 -23,37 21,41 45,26l68 8"/>
  <path class="fil2 str2" d="M2060 12511c12,47 21,112 74,125 65,16 40,72 52,116 11,39 23,56 -17,84 -49,34 -36,127 -11,171 15,25 31,68 52,87 36,33 64,22 108,31 47,14 82,2 117,42 24,27 -5,196 14,255 24,73 92,84 143,128 38,32 31,85 51,127 27,57 87,65 100,142 11,63 17,135 17,199 -13,88 57,145 19,248 -34,91 -8,97 -1,183 8,96 -32,231 -81,315 -40,68 -86,194 -45,271l18 37"/>
  <path class="fil2 str2" d="M1375 1000c52,76 80,39 122,108 23,37 150,56 195,63 142,24 220,-93 356,-44 127,46 110,-138 216,-72 71,45 182,-45 229,37 31,54 57,92 49,161 -6,48 -36,117 -24,162 29,105 147,-60 147,25 0,65 -54,127 -36,183 -5,15 16,93 30,109 36,41 146,-40 197,16 42,46 55,108 74,166 23,69 60,47 105,7 36,-31 237,-83 281,-74 39,8 15,41 37,62 40,38 98,-13 131,72 18,45 48,80 98,82 77,4 70,75 119,109 46,31 42,95 80,106 35,22 82,9 116,45 57,61 64,95 135,149 101,79 239,58 335,161 95,102 114,189 272,86 128,-84 101,-11 163,45 38,35 70,-4 110,60 35,57 177,-24 220,69 40,84 -4,122 73,199 15,45 149,145 188,183 50,48 112,82 151,138 65,93 -51,127 -29,234 11,50 35,67 67,101 32,34 52,68 79,104 -1,20 15,39 7,58 -18,42 -51,50 -31,105 29,79 103,124 54,220 -38,73 -59,65 -13,147 46,82 55,209 148,240 114,38 63,84 63,180 -17,35 7,82 -31,113 -29,23 -59,3 -66,55 -8,61 -22,155 -74,197 -31,25 -81,6 -101,43 -12,22 14,63 -19,75 -44,16 -78,-3 -58,75 16,63 -30,69 -42,119 -5,9 -6,8 -8,14 -82,49 -19,123 -17,195l6 212 -1 150c-1,69 40,145 55,214 16,76 16,144 16,222 -32,155 273,250 384,239 61,-6 145,-50 210,-30 46,15 41,55 106,63 181,22 191,181 276,317 81,129 173,248 228,390 -3,37 58,115 72,160 15,48 -29,68 -15,109 24,72 -37,176 68,214 79,28 167,36 240,86 42,29 83,109 132,116 44,6 90,-7 133,0 44,7 86,65 137,82 55,19 160,21 220,23 73,29 145,-22 206,-56 74,-40 123,-2 193,-30 157,-63 267,-1 418,-36 114,-26 202,-63 323,-58 76,3 120,70 200,72 128,2 160,-33 266,44 51,37 188,-4 209,-64 67,-81 99,-8 149,-56 31,-30 66,-104 113,-109 90,-8 149,-149 243,-149 34,0 81,22 86,60 6,46 23,52 62,60 63,13 22,126 102,123 105,-5 123,-103 193,8 22,35 114,33 157,91l25 42"/>
  <path class="fil2 str2" d="M10439 8013c-9,-24 -6,-47 -23,-71 -26,-38 -52,-71 -46,-122 4,-33 21,-66 10,-101 -21,-66 -33,-89 -14,-158 18,-66 53,-126 82,-187 15,-58 17,-86 7,-146 -9,-51 -5,-70 26,-111 27,-36 -9,-59 2,-94 10,-31 60,-29 77,-49 33,-39 -46,-127 17,-169 92,-63 44,-133 93,-205 69,-102 -61,-117 -37,-232 -4,-20 -10,-54 -26,-68 -13,-11 -30,-18 -45,-26 -29,-17 -57,-56 -95,-56 -48,0 -56,77 -120,67 -42,-7 -21,-147 -21,-178 52,-78 79,-181 86,-273 6,-84 36,-109 114,-119 33,-4 69,-71 92,-95 60,-64 -32,-127 -24,-195 8,-70 113,-68 156,-121 21,-105 92,-217 130,-317 29,-77 74,-120 153,-125 177,-13 299,-430 427,-542 42,-57 28,-91 44,-156 16,-65 150,-146 203,-191 74,-63 111,-152 104,-251 -13,-167 143,-54 205,-158 40,-68 -9,-194 11,-272 33,-91 -38,-241 -122,-285 -27,-14 -79,-23 -95,-49 -38,-60 -41,-159 -77,-228 -52,-99 -98,-181 -108,-295 -5,-58 8,-87 68,-87 77,0 19,-39 7,-70 -28,-51 -86,-101 -57,-167 18,-41 133,-66 114,-112 -60,-13 -136,-50 -153,-116 -22,-89 77,-38 119,-75 37,-32 -48,-90 -76,-91 -67,-1 -202,94 -253,-2 -33,-63 -13,-164 -81,-205 -72,-44 -161,33 -238,-10 -96,-53 -34,-135 -74,-226 -121,-90 -359,-57 -423,-217l-19 -55"/>
  <path class="fil2 str2" d="M5331 3224c54,-63 15,-68 10,-135 -6,-89 68,-8 87,-51 25,-57 47,3 87,-25 31,-22 26,-54 20,-85 -7,-40 6,-51 7,-85 1,-25 -33,-28 -38,-60 -7,-48 39,-83 0,-132 -101,-127 56,-87 26,-179 -16,-51 -150,-103 -199,-112 -27,13 -45,6 -67,-10 -27,-19 -6,-37 1,-60 26,-83 -104,-184 -150,-236 -53,-60 -144,32 -189,-60 -35,-70 35,-104 51,-158 12,-39 -11,-61 -36,-90 -44,-50 59,-75 -6,-127 -11,-9 -5,-143 0,-166 28,-62 -57,-60 -41,-111 11,-34 75,-25 81,-55 10,-49 -54,-70 -76,-100 -15,-20 5,-41 19,-54 29,-27 34,-44 46,-79l19 -56"/>
  <path class="fil2 str2" d="M6391 6835c-60,33 -165,-4 -194,86 -21,67 -109,81 -111,143 -2,54 5,88 -43,123 -30,22 -62,27 -86,61 -59,84 -120,230 -149,329 -27,158 -67,230 -195,317 -51,35 18,137 26,195 16,106 -21,94 -46,179 -26,87 -53,41 -94,93 -45,56 -6,156 -102,172 -66,11 -112,100 -123,161 -7,97 2,101 -51,183 -34,52 13,140 -58,179 -112,61 -182,19 -261,150 -38,63 -32,182 15,239 51,61 -84,203 -137,257 -37,37 -55,86 -114,76 -70,-12 -90,-22 -162,2 -30,17 -155,76 -162,99 -17,55 18,87 -17,141 -53,82 -85,176 -74,277 5,48 55,190 107,201 67,13 123,-18 167,53 52,83 170,142 265,161 77,16 169,-32 209,56l7 56"/>
  <path class="fil2 str2" d="M5222 8877c52,13 75,93 114,73 50,-26 52,-85 122,-53 103,48 169,92 293,66 86,-19 151,-76 244,-63 173,23 210,-7 348,-111 93,-70 199,-29 303,-84 90,-48 261,35 377,14 110,-20 197,12 305,19 138,9 272,-83 419,-86 78,-1 151,-52 228,-64l261 -44c35,-11 71,-14 105,-25 72,-23 146,-73 224,-38 49,22 64,39 122,38 72,-2 86,-64 132,-101 52,-42 57,-116 102,-161l103 -118"/>
  <path class="fil2 str2" d="M6006 10305c70,-150 325,-200 446,-300 57,-47 95,-135 147,-191 61,-66 170,-148 245,-196l410 -286c197,-137 415,-47 589,-247 154,-177 416,-273 621,-390l236 -176"/>
  <polygon class="fil3 str3" points="16521,23479 19404,23479 19404,25072 16521,25072 "/>
  <g id="_2702730416032">
   <polygon class="fil4 str4" points="16640,24073 17302,24073 17302,24173 16640,24173 "/>
   <polygon class="fil5 str4" points="17302,24073 17964,24073 17964,24173 17302,24173 "/>
   <polygon class="fil4 str4" points="17964,24073 18626,24073 18626,24173 17964,24173 "/>
   <polygon class="fil5 str4" points="18626,24073 19288,24073 19288,24173 18626,24173 "/>
   <polygon class="fil4 str4" points="17701,24372 18760,24372 18760,24472 17701,24472 "/>
   <polygon class="fil5 str4" points="16642,24372 17701,24372 17701,24472 16642,24472 "/>
  </g>
  <path class="fil6" d="M17661 23766c-19,-15 -31,-27 -36,-37 -5,-9 -8,-19 -8,-29 0,-15 6,-28 18,-39 12,-11 27,-16 47,-16 19,0 34,5 46,15 12,10 17,22 17,35 0,9 -3,18 -9,27 -6,9 -19,20 -39,32 20,16 34,28 40,37 9,12 13,24 13,37 0,16 -6,30 -19,42 -13,12 -29,17 -49,17 -22,0 -40,-7 -52,-21 -10,-11 -15,-23 -15,-37 0,-10 3,-21 10,-31 7,-10 19,-21 36,-34zm27 -18c14,-12 23,-22 26,-30 4,-7 6,-15 6,-24 0,-12 -3,-22 -10,-28 -7,-7 -16,-10 -28,-10 -12,0 -21,3 -29,10 -7,7 -11,15 -11,24 0,6 2,12 5,18 3,6 7,12 13,17l28 24zm-19 25c-10,8 -17,17 -21,26 -5,9 -7,20 -7,31 0,15 4,27 12,35 8,9 18,13 31,13 12,0 22,-3 30,-10 7,-7 11,-15 11,-25 0,-8 -2,-16 -7,-22 -8,-12 -25,-28 -50,-48z"/>
  <path id="1" class="fil6" d="M17916 23639l0 157 40 -37c9,-8 13,-13 15,-15 1,-1 1,-3 1,-4 0,-2 -1,-4 -3,-6 -2,-2 -5,-3 -9,-3l0 -6 69 0 0 6c-9,0 -17,2 -23,4 -6,3 -13,7 -21,14l-41 37 40 51c11,14 19,23 23,27 6,5 10,9 15,10 3,1 8,2 15,2l0 6 -77 0 0 -6c4,0 7,-1 9,-2 2,-1 2,-3 2,-5 0,-3 -2,-7 -7,-13l-48 -62 0 52c0,10 1,17 2,20 1,3 3,5 6,7 3,1 8,2 17,2l0 6 -80 0 0 -6c8,0 14,-1 18,-3 2,-1 4,-3 5,-6 2,-4 3,-10 3,-20l0 -144c0,-18 0,-29 -1,-33 -1,-4 -2,-7 -4,-8 -2,-2 -4,-2 -7,-2 -2,0 -6,1 -11,3l-3 -6 47 -19 8 0z"/>
  <path id="2" class="fil6" d="M18092 23755c11,-12 18,-18 20,-20 5,-4 11,-8 17,-10 6,-2 12,-4 18,-4 10,0 18,3 25,9 7,6 12,14 14,25 12,-14 22,-23 30,-27 8,-4 17,-6 25,-6 8,0 16,2 22,6 6,4 12,11 15,21 3,7 4,17 4,31l0 68c0,10 1,17 2,20 1,2 3,5 6,6 3,2 8,3 15,3l0 6 -77 0 0 -6 3 0c7,0 12,-1 16,-4 3,-2 5,-5 6,-9 0,-2 1,-7 1,-17l0 -68c0,-13 -2,-22 -5,-27 -5,-7 -12,-11 -22,-11 -6,0 -12,2 -18,5 -6,3 -14,9 -22,17l0 2 1 7 0 75c0,11 1,17 2,20 1,3 3,5 7,7 3,2 9,3 17,3l0 6 -79 0 0 -6c9,0 15,-1 18,-3 3,-2 5,-5 7,-9 1,-2 1,-8 1,-17l0 -68c0,-13 -2,-22 -6,-28 -5,-7 -12,-11 -21,-11 -6,0 -12,2 -18,5 -9,5 -17,11 -22,17l0 85c0,10 1,17 2,20 1,3 4,5 6,7 3,2 8,2 17,2l0 6 -78 0 0 -6c7,0 12,-1 15,-2 3,-2 5,-4 7,-7 1,-3 2,-10 2,-20l0 -60c0,-17 -1,-28 -2,-34 -1,-4 -2,-6 -4,-8 -2,-1 -4,-2 -7,-2 -3,0 -7,1 -12,3l-3 -6 48 -19 7 0 0 34z"/>
  <path class="fil6" d="M17568 24768l0 24 -31 0 0 62 -29 0 0 -62 -98 0 0 -22 108 -155 19 0 0 152 31 0zm-60 0l0 -116 -82 116 82 0z"/>
  <path id="1" class="fil6" d="M17727 24725c11,-12 18,-18 20,-20 5,-4 11,-8 17,-10 6,-2 12,-4 18,-4 10,0 18,3 25,9 7,6 12,14 14,25 12,-14 22,-23 30,-27 8,-4 17,-6 25,-6 8,0 16,2 22,6 6,4 12,11 15,21 3,7 4,17 4,31l0 68c0,10 1,17 2,20 1,2 3,5 6,6 3,2 8,3 15,3l0 6 -77 0 0 -6 3 0c7,0 12,-1 16,-4 3,-2 5,-5 6,-9 0,-2 1,-7 1,-17l0 -68c0,-13 -2,-22 -5,-27 -5,-7 -12,-11 -22,-11 -6,0 -12,2 -18,5 -6,3 -14,9 -22,17l0 2 1 7 0 75c0,11 1,17 2,20 1,3 3,5 7,7 3,2 9,3 17,3l0 6 -79 0 0 -6c9,0 15,-1 18,-3 3,-2 5,-5 7,-9 1,-2 1,-8 1,-17l0 -68c0,-13 -2,-22 -6,-28 -5,-7 -12,-11 -21,-11 -6,0 -12,2 -18,5 -9,5 -17,11 -22,17l0 85c0,10 1,17 2,20 1,3 4,5 6,7 3,2 8,2 17,2l0 6 -78 0 0 -6c7,0 12,-1 15,-2 3,-2 5,-4 7,-7 1,-3 2,-10 2,-20l0 -60c0,-17 -1,-28 -2,-34 -1,-4 -2,-6 -4,-8 -2,-1 -4,-2 -7,-2 -3,0 -7,1 -12,3l-3 -6 48 -19 7 0 0 34z"/>
  <path id="2" class="fil6" d="M17994 24609c5,0 9,2 12,5 3,3 5,8 5,12 0,5 -2,9 -5,12 -3,3 -8,5 -12,5 -5,0 -9,-2 -12,-5 -3,-3 -5,-8 -5,-12 0,-5 2,-9 5,-12 3,-3 8,-5 13,-5zm14 83l0 127c0,10 1,16 2,20 1,3 4,6 6,7 3,2 8,2 15,2l0 6 -77 0 0 -6c8,0 13,-1 15,-2 3,-1 5,-4 6,-7 2,-3 2,-10 2,-20l0 -61c0,-17 -1,-28 -2,-33 -1,-4 -2,-6 -4,-8 -2,-1 -4,-2 -7,-2 -3,0 -7,1 -12,3l-2 -6 47 -19 8 0z"/>
  <path class="fil6" d="M19583 24979c0,-17 4,-34 13,-51 9,-17 22,-30 38,-39 17,-9 34,-14 52,-14 18,0 35,5 52,14 17,9 29,22 39,38 9,17 14,34 14,52 0,18 -5,35 -14,52 -9,17 -22,29 -39,39 -17,9 -34,14 -52,14 -18,0 -35,-5 -52,-14 -17,-9 -30,-22 -38,-39 -9,-17 -13,-34 -13,-51zm17 0c0,15 4,29 11,43 7,14 18,25 32,32 14,8 28,12 43,12 15,0 29,-4 43,-12 14,-8 24,-18 32,-32 8,-14 12,-28 12,-43 0,-15 -4,-29 -12,-43 -8,-14 -18,-25 -32,-32 -14,-8 -28,-11 -43,-11 -15,0 -30,4 -43,12 -14,8 -25,19 -32,32 -7,14 -11,28 -11,43zm104 -33l5 -17c12,3 21,9 28,18 7,9 10,20 10,33 0,16 -5,29 -16,39 -10,10 -25,15 -44,15 -12,0 -23,-2 -32,-7 -9,-5 -16,-11 -20,-20 -5,-9 -7,-18 -7,-29 0,-12 3,-22 9,-30 6,-8 14,-14 24,-17l4 16c-7,3 -12,7 -16,12 -4,5 -6,12 -6,19 0,11 4,19 11,26 8,7 18,10 32,10 14,0 25,-3 32,-10 7,-6 11,-15 11,-25 0,-8 -2,-16 -7,-22 -5,-6 -11,-10 -20,-12z"/>
  <path id="1" class="fil6" d="M19789 24684l-19 0c14,9 22,23 22,41 0,12 -3,22 -10,32 -6,10 -15,17 -27,23 -12,5 -25,8 -40,8 -15,0 -28,-2 -40,-7 -12,-5 -21,-12 -27,-22 -6,-10 -10,-21 -10,-33 0,-9 2,-17 6,-24 4,-7 9,-12 15,-17l-73 0 0 -25 202 0 0 23zm-73 78c19,0 33,-4 42,-12 9,-8 14,-17 14,-28 0,-11 -4,-20 -13,-28 -9,-8 -22,-11 -41,-11 -20,0 -35,4 -44,12 -9,8 -14,17 -14,29 0,11 4,20 13,28 9,7 23,11 42,11z"/>
  <polygon id="2" class="fil6" points="19728,24631 19703,24631 19703,24555 19728,24555 "/>
  <path id="3" class="fil6" d="M19789 24527l-146 0 0 -22 21 0c-7,-5 -13,-11 -17,-18 -4,-8 -7,-16 -7,-26 0,-11 2,-20 7,-27 5,-7 11,-12 19,-15 -17,-12 -26,-27 -26,-45 0,-15 4,-26 12,-34 8,-8 20,-12 37,-12l100 0 0 25 -92 0c-10,0 -17,1 -21,2 -4,2 -8,5 -11,9 -3,4 -4,9 -4,15 0,10 3,19 10,26 7,7 18,10 33,10l85 0 0 25 -95 0c-11,0 -19,2 -25,6 -6,4 -8,11 -8,20 0,7 2,13 6,19 4,6 9,10 16,13 7,3 17,4 31,4l76 0 0 25z"/>
  <path id="4" class="fil6" d="M19770 24197c8,9 13,18 17,27 3,9 5,18 5,27 0,16 -4,28 -12,37 -8,9 -18,13 -30,13 -7,0 -14,-2 -20,-5 -6,-3 -11,-8 -14,-13 -4,-5 -6,-11 -8,-18 -1,-5 -2,-12 -4,-22 -2,-20 -5,-35 -9,-44 -3,0 -6,0 -6,0 -10,0 -17,2 -21,7 -6,6 -8,16 -8,28 0,12 2,20 6,26 4,6 11,10 22,12l-3 24c-10,-2 -19,-6 -25,-11 -6,-5 -11,-12 -15,-22 -3,-10 -5,-21 -5,-33 0,-13 1,-23 4,-31 3,-8 7,-14 11,-17 4,-4 10,-6 17,-8 4,-1 12,-1 23,-1l33 0c23,0 38,-1 44,-2 6,-1 12,-3 18,-6l0 26c-5,3 -11,4 -18,5zm-55 2c4,9 7,23 9,41 1,10 3,17 5,22 2,4 5,7 8,10 4,2 7,3 12,3 7,0 12,-2 16,-8 4,-5 7,-12 7,-22 0,-10 -2,-18 -6,-26 -4,-7 -10,-13 -17,-16 -6,-3 -14,-4 -25,-4l-9 0z"/>
  <path id="5" class="fil6" d="M19845 24135l-203 0 0 -23 19 0c-7,-5 -13,-11 -17,-18 -4,-7 -6,-15 -6,-24 0,-13 3,-24 10,-33 6,-10 15,-17 27,-22 12,-5 25,-7 38,-7 15,0 28,3 40,8 12,5 21,13 28,23 6,10 10,21 10,32 0,8 -2,16 -5,22 -3,7 -8,12 -13,16l71 0 0 25zm-129 -23c19,0 33,-4 42,-11 9,-8 13,-17 13,-28 0,-11 -5,-20 -14,-28 -9,-8 -24,-12 -43,-12 -19,0 -33,4 -42,11 -9,8 -14,17 -14,27 0,11 5,20 15,28 10,8 24,12 43,12z"/>
  <path id="6" class="fil6" d="M19745 23988l-4 -25c10,-1 17,-5 23,-12 5,-6 8,-15 8,-26 0,-11 -2,-20 -7,-25 -5,-6 -10,-8 -16,-8 -6,0 -10,3 -13,7 -2,3 -5,12 -8,25 -5,18 -9,31 -12,38 -3,7 -8,12 -14,16 -6,4 -12,5 -20,5 -7,0 -13,-2 -18,-4 -6,-3 -10,-7 -14,-12 -3,-4 -5,-9 -7,-16 -2,-7 -3,-14 -3,-21 0,-11 2,-22 5,-30 3,-9 8,-15 13,-19 6,-4 13,-7 23,-9l3 24c-8,1 -14,4 -18,10 -4,5 -6,13 -6,22 0,11 2,19 6,24 4,5 8,7 13,7 3,0 6,-1 9,-3 3,-2 5,-5 7,-10 1,-3 3,-10 6,-22 5,-18 9,-30 11,-37 3,-7 7,-12 13,-16 6,-4 13,-6 21,-6 8,0 16,2 23,7 7,5 13,12 17,21 4,9 6,19 6,31 0,19 -4,34 -12,44 -8,10 -20,16 -35,19z"/>
  <polygon id="7" class="fil6" points="19789,23830 19760,23830 19760,23802 19789,23802 "/>
  <path id="8" class="fil6" d="M19735 23663l3 -24c17,3 30,9 39,20 9,11 14,24 14,40 0,20 -7,36 -20,48 -13,12 -32,18 -56,18 -16,0 -30,-3 -41,-8 -12,-5 -21,-13 -27,-24 -6,-11 -9,-22 -9,-35 0,-16 4,-29 12,-39 8,-10 19,-17 34,-19l4 24c-10,2 -17,6 -22,12 -5,6 -7,13 -7,21 0,13 4,23 13,31 9,8 23,12 42,12 20,0 34,-4 43,-11 9,-8 13,-17 13,-29 0,-10 -3,-18 -9,-24 -6,-7 -15,-11 -27,-12z"/>
  <path id="9" class="fil6" d="M19715 23627c-27,0 -47,-8 -60,-23 -11,-13 -16,-28 -16,-46 0,-20 7,-37 20,-49 13,-13 31,-19 55,-19 19,0 34,3 44,8 11,6 19,14 25,25 6,11 9,23 9,35 0,21 -7,37 -20,50 -13,13 -32,19 -57,19zm0 -25c19,0 33,-4 42,-12 9,-8 14,-19 14,-31 0,-12 -5,-23 -14,-31 -9,-8 -24,-12 -43,-12 -18,0 -32,4 -41,12 -9,8 -14,18 -14,31 0,12 5,23 14,31 9,8 23,12 42,12z"/>
  <path id="10" class="fil6" d="M19789 23461l-146 0 0 -22 21 0c-7,-5 -13,-11 -17,-18 -4,-8 -7,-16 -7,-26 0,-11 2,-20 7,-27 5,-7 11,-12 19,-15 -17,-12 -26,-27 -26,-45 0,-15 4,-26 12,-34 8,-8 20,-12 37,-12l100 0 0 25 -92 0c-10,0 -17,1 -21,2 -4,2 -8,5 -11,9 -3,4 -4,9 -4,15 0,10 3,19 10,26 7,7 18,10 33,10l85 0 0 25 -95 0c-11,0 -19,2 -25,6 -6,4 -8,11 -8,20 0,7 2,13 6,19 4,6 9,10 16,13 7,3 17,4 31,4l76 0 0 25z"/>
  <rect class="fil2 str5" x="1000" y="1000" width="19000" height="24302"/>
  <g id="_2702730412160">
   <polygon class="fil3 str3" points="15569,23476 16385,23476 16385,25068 15569,25068 "/>
   <path class="fil7" d="M15917 23912c-1,3 -2,6 -2,9 0,3 -1,5 -1,7 0,6 2,10 5,12 3,2 10,3 18,3l4 0 -5 23 -78 0 5 -23 3 0c7,0 13,-2 16,-5 4,-3 6,-8 8,-16l38 -154c1,-3 1,-6 2,-8 0,-3 1,-6 1,-9 0,-5 -2,-9 -6,-11 -4,-2 -11,-3 -20,-3l-3 0 5 -23 72 0 62 184 31 -129c1,-4 2,-8 2,-10 0,-3 1,-5 1,-6 0,-6 -2,-10 -5,-12 -4,-2 -10,-3 -18,-3l-4 0 5 -23 79 0 -6 23 -3 0c-7,0 -13,2 -16,5 -4,3 -6,8 -8,16l-51 208 -22 0 -72 -209 -37 155z"/>
   <line class="fil2 str6" x1="15977" y1="24935" x2="15977" y2= "24166" />
   <line class="fil2 str6" x1="15695" y1="24659" x2="16259" y2= "24659" />
   <line class="fil2 str6" x1="15833" y1="24799" x2="16127" y2= "24512" />
   <line class="fil2 str6" x1="15829" y1="24512" x2="16127" y2= "24801" />
   <line class="fil2 str6" x1="15977" y1="24169" x2="15882" y2= "24287" />
   <line class="fil2 str6" x1="15978" y1="24169" x2="16066" y2= "24287" />
  </g>
  <g id="_2702730407168">
   <polygon class="fil3 str3" points="14807,24595 14807,25068 12497,25068 12497,24595 "/>
   <path class="fil7" d="M13575 24933l0 -202 40 0 48 143c4,13 8,23 10,30 2,-7 6,-18 11,-32l49 -141 36 0 0 202 -26 0 0 -169 -59 169 -24 0 -58 -172 0 172 -26 0z"/>
   <path id="1" class="fil7" d="M13907 24886l26 3c-4,15 -11,27 -22,35 -11,8 -25,12 -42,12 -21,0 -38,-7 -51,-20 -13,-13 -19,-32 -19,-55 0,-25 6,-44 19,-57 13,-14 29,-20 49,-20 20,0 35,7 48,20 12,13 19,32 19,56 0,1 0,4 0,7l-109 0c1,16 5,28 14,37 8,9 18,13 31,13 9,0 17,-2 23,-7 6,-5 12,-12 15,-23zm-81 -40l82 0c-1,-12 -4,-22 -9,-28 -8,-10 -18,-14 -31,-14 -11,0 -21,4 -29,11 -8,8 -12,18 -13,31z"/>
   <path id="2" class="fil7" d="M13964 24933l0 -146 22 0 0 22c6,-10 11,-17 16,-21 5,-3 10,-5 16,-5 8,0 17,3 26,8l-9 23c-6,-3 -12,-5 -18,-5 -5,0 -10,2 -15,5 -4,3 -7,8 -9,14 -3,9 -4,18 -4,29l0 77 -25 0z"/>
   <path id="3" class="fil7" d="M14154 24880l24 3c-3,17 -9,30 -20,39 -11,9 -24,14 -40,14 -20,0 -36,-7 -48,-20 -12,-13 -18,-32 -18,-56 0,-16 3,-30 8,-41 5,-12 13,-21 24,-27 11,-6 22,-9 35,-9 16,0 29,4 39,12 10,8 17,19 19,34l-24 4c-2,-10 -6,-17 -12,-22 -6,-5 -13,-7 -21,-7 -13,0 -23,4 -31,13 -8,9 -12,23 -12,42 0,20 4,34 11,43 8,9 17,13 29,13 10,0 18,-3 24,-9 7,-6 11,-15 12,-27z"/>
   <path id="4" class="fil7" d="M14295 24915c-9,8 -18,13 -27,17 -9,3 -18,5 -27,5 -16,0 -28,-4 -37,-12 -9,-8 -13,-18 -13,-30 0,-7 2,-14 5,-20 3,-6 8,-11 13,-14 5,-4 11,-6 18,-8 5,-1 12,-2 22,-4 20,-2 35,-5 44,-9 0,-3 0,-6 0,-6 0,-10 -2,-17 -7,-21 -6,-6 -16,-8 -28,-8 -12,0 -20,2 -26,6 -6,4 -10,11 -12,22l-24 -3c2,-10 6,-19 11,-25 5,-6 12,-11 22,-15 10,-3 21,-5 33,-5 13,0 23,1 31,4 8,3 14,7 17,11 4,4 6,10 8,17 1,4 1,12 1,23l0 33c0,23 1,38 2,44 1,6 3,12 6,18l-26 0c-3,-5 -4,-11 -5,-18zm-2 -55c-9,4 -23,7 -41,9 -10,1 -17,3 -22,5 -4,2 -7,5 -10,8 -2,4 -3,7 -3,12 0,7 2,12 8,16 5,4 12,7 22,7 10,0 18,-2 26,-6 7,-4 13,-10 16,-17 3,-6 4,-14 4,-25l0 -9z"/>
   <path id="5" class="fil7" d="M14410 24911l3 22c-7,1 -13,2 -19,2 -9,0 -16,-1 -21,-4 -5,-3 -8,-7 -10,-11 -2,-5 -3,-14 -3,-29l0 -84 -18 0 0 -19 18 0 0 -36 25 -15 0 51 25 0 0 19 -25 0 0 86c0,7 0,12 1,14 1,2 2,4 4,5 2,1 5,2 8,2 3,0 6,0 11,-1z"/>
   <path id="6" class="fil7" d="M14425 24860c0,-27 8,-47 23,-60 13,-11 28,-16 46,-16 20,0 37,7 49,20 13,13 19,31 19,55 0,19 -3,34 -8,44 -6,11 -14,19 -25,25 -11,6 -23,9 -35,9 -21,0 -37,-7 -50,-20 -13,-13 -19,-32 -19,-57zm25 0c0,19 4,33 12,42 8,9 19,14 31,14 12,0 23,-5 31,-14 8,-9 12,-24 12,-43 0,-18 -4,-32 -12,-41 -8,-9 -18,-14 -31,-14 -12,0 -23,5 -31,14 -8,9 -12,23 -12,42z"/>
   <path id="7" class="fil7" d="M14591 24933l0 -146 22 0 0 22c6,-10 11,-17 16,-21 5,-3 10,-5 16,-5 8,0 17,3 26,8l-9 23c-6,-3 -12,-5 -18,-5 -5,0 -10,2 -15,5 -4,3 -7,8 -9,14 -3,9 -4,18 -4,29l0 77 -25 0z"/>
   <circle class="fil8 str7" cx="12716" cy="24828" r="119"/>
   <rect class="fil8 str7" x="13174" y="24720" width="227" height="227"/>
   <line class="fil2 str8" x1="12890" y1="24827" x2="13110" y2= "24827" />
   <line class="fil2 str8" x1="13107" y1="24828" x2="13043" y2= "24893" />
   <line class="fil2 str8" x1="13107" y1="24827" x2="13044" y2= "24765" />
  </g>
 </g>
</svg>
